<svg width="30" height="30" viewBox="0 0 30 30" fill="none" xmlns="http://www.w3.org/2000/svg"><g clip-path="url(#clip0_1320_25987)"><path d="M28.9013 11.3363L19.42 1.85377C18.2466 0.683752 16.6571 0.0267334 15 0.0267334C13.3429 0.0267334 11.7535 0.683752 10.58 1.85377L1.09877 11.3363C0.749297 11.6835 0.472227 12.0966 0.283618 12.5517C0.095009 13.0069 -0.001388 13.4949 1.50994e-05 13.9875V26.2588C1.50994e-05 27.2533 0.395103 28.2072 1.09836 28.9104C1.80163 29.6137 2.75545 30.0088 3.75002 30.0088H26.25C27.2446 30.0088 28.1984 29.6137 28.9017 28.9104C29.6049 28.2072 30 27.2533 30 26.2588V13.9875C30.0014 13.4949 29.905 13.0069 29.7164 12.5517C29.5278 12.0966 29.2507 11.6835 28.9013 11.3363ZM18.75 27.5088H11.25V22.5913C11.25 21.5967 11.6451 20.6429 12.3484 19.9396C13.0516 19.2364 14.0055 18.8413 15 18.8413C15.9946 18.8413 16.9484 19.2364 17.6517 19.9396C18.3549 20.6429 18.75 21.5967 18.75 22.5913V27.5088ZM27.5 26.2588C27.5 26.5903 27.3683 26.9082 27.1339 27.1427C26.8995 27.3771 26.5815 27.5088 26.25 27.5088H21.25V22.5913C21.25 20.9337 20.5915 19.344 19.4194 18.1718C18.2473 16.9997 16.6576 16.3413 15 16.3413C13.3424 16.3413 11.7527 16.9997 10.5806 18.1718C9.4085 19.344 8.75002 20.9337 8.75002 22.5913V27.5088H3.75002C3.41849 27.5088 3.10055 27.3771 2.86613 27.1427C2.63171 26.9082 2.50002 26.5903 2.50002 26.2588V13.9875C2.50117 13.6562 2.63275 13.3387 2.86627 13.1038L12.3475 3.62502C13.0521 2.92368 14.0058 2.52994 15 2.52994C15.9942 2.52994 16.9479 2.92368 17.6525 3.62502L27.1338 13.1075C27.3664 13.3416 27.4979 13.6575 27.5 13.9875V26.2588Z" fill="#e0e0e0"/></g><defs><clipPath id="clip0_1320_25987"><rect width="30" height="30" fill="#e0e0e0"/></clipPath></defs></svg>